<svg id="Layer_1" data-name="Layer 1" xmlns="http://www.w3.org/2000/svg" viewBox="0 0 60 45"><title>Artboard 23 copy</title><path d="M17.59,6.06v6.06H7.76V6.06h9.83m2-2H5.76V14.12H19.59V4.06Z"/><path d="M17.59,19.47v6.06H7.76V19.47h9.83m2-2H5.76V27.53H19.59V17.47Z"/><path d="M17.59,32.88v6.06H7.76V32.88h9.83m2-2H5.76V40.94H19.59V30.88Z"/><path d="M34.91,6.06v6.06H25.09V6.06h9.83m2-2H23.09V14.12H36.91V4.06Z"/><path d="M34.91,19.47v6.06H25.09V19.47h9.83m2-2H23.09V27.53H36.91V17.47Z"/><path d="M34.91,32.88v6.06H25.09V32.88h9.83m2-2H23.09V40.94H36.91V30.88Z"/><path d="M52.24,6.06v6.06H42.41V6.06h9.83m2-2H40.41V14.12H54.24V4.06Z"/><path d="M52.24,19.47v6.06H42.41V19.47h9.83m2-2H40.41V27.53H54.24V17.47Z"/><path d="M52.24,32.88v6.06H42.41V32.88h9.83m2-2H40.41V40.94H54.24V30.88Z"/></svg>