<svg id="Layer_1" data-name="Layer 1" xmlns="http://www.w3.org/2000/svg" viewBox="0 0 31.25 45"><title>Artboard 24</title><path d="M26,5.93V39.07H5.83V5.93H26m2-2H3.83V41.07H28V3.93Z"/><path d="M11.44,23.5A1,1,0,0,1,10.57,22l5.52-10a1,1,0,0,1,.88-.52h9A1,1,0,0,1,26.8,13L21.28,23a1,1,0,0,1-1.75-1l4.71-8.53H17.56L12.32,23A1,1,0,0,1,11.44,23.5Z"/><path d="M25.93,13.48H17a1,1,0,0,1-.91-.58L14.37,9.25a1,1,0,0,1,.91-1.42h9a1,1,0,0,1,.91.58l1.69,3.65a1,1,0,0,1-.91,1.42Zm-8.32-2h6.76L23.6,9.83H16.84Z"/><path d="M11.44,23.5a1,1,0,0,1-.25,0,1,1,0,0,1-.75-1V15.78a1,1,0,0,1,.12-.48L14.4,8.35a1,1,0,0,1,.91-.52,1,1,0,0,1,.87.58l1.69,3.65a1,1,0,0,1,0,.9L12.32,23A1,1,0,0,1,11.44,23.5Zm1-7.47v2.58l3.4-6.17L15.2,11Z"/><path d="M20.4,23.5h-9a1,1,0,0,1,0-2h9a1,1,0,0,1,0,2Z"/><path d="M19.4,22.5v9h-7v-18h.62v-2H11.44a1,1,0,0,0-1,1v20a1,1,0,0,0,1,1h9a1,1,0,0,0,1-1v-10Z"/></svg>